<svg xmlns="http://www.w3.org/2000/svg" version="1.1" width="800" height="500">
    <!--Оранжевый мальчик-->
    <g fill="#f66300"> <!--Голова, туловище и ноги-->
        <rect x="133" y="400" width="135" height="32" />
        <path d="M124 400  A 122 50 0 0 0 276 400" fill="#e25400" /> <!--Тень у туловища-->
        <path d="M128 295 Q 103 340, 100 370 H 133 L 125 400 Q 200 420, 275 400 V 370 H 308 Q 300 325, 275 295"/><!--Туловище-->
        <path d="M126 296  A 114 114 0 0 0 275 295" fill="#e25400" /> <!--Тень у головы-->
        <circle  cx="200" cy="207" r="115" />
        <ellipse cx="200" cy="210" rx="75" ry="65" stroke="black"/>
    </g>
    <rect x="127" y="430" width="147" height="6" rx="5" ry="5"/> <!--Ноги-->
    <g fill="#ffdeae"> <!--Лицо-->
        <path d="M210 145 C 190 140, 110 195, 190 255" /><!--Слева-->
        <path d="M209 145 C 250 158, 260 244, 189 255" /><!--Справа-->
    </g>
    <g fill="white"> <!--Глаза-->
        <ellipse cx="175" cy="203" rx="30" ry="36" transform="rotate(30, 175, 195)" />
        <ellipse cx="231" cy="206" rx="30" ry="36" transform="rotate(-30, 235, 205)" />
    </g>
    <g fill="black">  <!--Зрачки-->
        <circle cx="183" cy="199" r="4"/>
        <circle cx="220" cy="203" r="4"/>
    </g>
    <g fill="#7f441a"> <!--Мех и руки-->
        <path d="M210 145 C 140 130, 90 240, 190 255 C 135 224, 165 150, 210 145" /><!--Слева-->
        <path d="M210 145 C 285 150, 295 270, 190 255 C 260 240, 250 170, 210 145" /><!--Справа-->
        <circle cx="112" cy="380" r="21"/><!--Левая рука-->
        <circle cx="126" cy="372" r="9" stroke="black"/>
        <circle cx="294" cy="379" r="21"/><!--Правая рука-->
        <circle cx="280" cy="370" r="9" stroke="black"/>
    </g>
    <g fill="transparent" stroke="black">
        <path d="M189 255 T 184 275, 177 295"/>
        <path d="M189 255 C 198 260, 188 295, 198 308"/>
        <line x1="200" y1="322" x2="200" y2="410"/>
        <line x1="135" y1="373" x2="142" y2="349"/>
        <line x1="272" y1="372" x2="265" y2="351"/>
    </g>
    <g fill="transparent"><!--Тени у глаз-->
        <path d="M201 206 Q 199 198, 203 192" stroke="#676465"/>
        <path d="M204 188 A 30 36 -30 0 1 235 174" stroke="#cbb090"/>
        <path d="M201 188 A 30 36 30 0 0 174 167" stroke="#cbb090"/>
    </g>

    <!--Мальчик в ушанке-->
    <rect x="433" y="368" width="138" height="30" fill="#228580"/> <!--Ноги-->
    <path fill="#444046" d="M425 397 Q 500 387, 580 397 V 400 H 427"/> <!--Ступни-->
    <path fill="#ff6219" d="M428 265 Q 403 310, 400 340 H 433 L 425 370 Q 510 390, 580 365 V 340 H 603 Q 575 240, 565 265"/>
    <g fill="transparent" stroke="black">
        <line x1="500" y1="292" x2="500" y2="380"/>
        <line x1="433" y1="343" x2="442" y2="315"/>
        <line x1="570" y1="342" x2="563" y2="315"/>
        <path d="M460 315 H 485 V 350 H 460 V 315 L 472 330 L 485 315"/>
        <path d="M520 313 H 545 V 348 H 520 V 313 L 532 328 L 545 313"/>
    </g>
    <g fill="#00ad52">
        <path d="M426 266 H 578 Q 550 320 500 305 Q 450 320 428 272"/>
    </g>
    <ellipse fill="#ffeac1" cx="500" cy="215" rx="100" ry="85"/> <!--Голова-->
    <g fill="white"> <!--Глаза-->
        <ellipse cx="435" cy="56" rx="30" ry="36" transform="rotate(30, 175, 195)" />
        <ellipse cx="493" cy="352" rx="30" ry="36" transform="rotate(-30, 235, 205)" />
    </g>
    <g fill="black">  <!--Зрачки-->
        <circle cx="480" cy="200" r="4"/>
        <circle cx="518" cy="200" r="4"/>
    </g>
    <g fill="#4dc43d"> <!--Руки-->
        <circle cx="415" cy="351" r="20"/><!--Левая рука-->
        <circle cx="430" cy="342" r="8" stroke="black"/>
        <circle cx="590" cy="355" r="20"/><!--Правая рука-->
        <circle cx="575" cy="345" r="8" stroke="black"/>
        <ellipse cx="400" cy="190" rx="20" ry="55" transform="rotate(20, 400, 190)" />
        <ellipse cx="600" cy="190" rx="20" ry="55" transform="rotate(-20, 600, 190)" />
        <rect x="400" y="80" width="200" height="80" rx="15" ry="15"/>
    </g>
    <g fill="transparent" stroke="black">
        <path d="M400 150 Q 415 140 425 150"/>
        <path d="M575 150 Q 590 140 600 150"/>
    </g>
    <rect x="415" y="115" width="165" height="50" fill="#00ad52"/>
    <g fill="white" stroke="black">
        <path d="M470 260 H 530 L 520 270 H 512 V 260 V 270 H 498 V 260 V 270 H 486 V 260 V 270 H 478 L 470 260"/>
    </g>
    <path d="M477 270 L 500 285 L 521 270"/>
</svg>
